name C:\Users\r0593348\3dpredictsim\Results\Batchsim_tmt_linear\Pog_s1_tmt_aCst_d00_k800_ig24.mot
datacolumns 128
datarows 4
range 1.07450592 1.10674109
endheader
time	pelvis_tilt	pelvis_list	pelvis_rotation	pelvis_tx	pelvis_ty	pelvis_tz	hip_flexion_l	hip_adduction_l	hip_rotation_l	hip_flexion_r	hip_adduction_r	hip_rotation_r	knee_angle_l	knee_angle_r	ankle_angle_l	ankle_angle_r	subtalar_angle_l	subtalar_angle_r	tmt_angle_l	tmt_angle_r	mtp_angle_l	mtp_angle_r	lumbar_extension	lumbar_bending	lumbar_rotation	arm_flex_l	arm_add_l	arm_rot_l	arm_flex_r	arm_add_r	arm_rot_r	elbow_flex_l	elbow_flex_r	pro_sup_l	pro_sup_r	glut_med1_l/activation	glut_med2_l/activation	glut_med3_l/activation	glut_min1_l/activation	glut_min2_l/activation	glut_min3_l/activation	semimem_l/activation	semiten_l/activation	bifemlh_l/activation	bifemsh_l/activation	sar_l/activation	add_long_l/activation	add_brev_l/activation	add_mag1_l/activation	add_mag2_l/activation	add_mag3_l/activation	tfl_l/activation	pect_l/activation	grac_l/activation	glut_max1_l/activation	glut_max2_l/activation	glut_max3_l/activation	iliacus_l/activation	psoas_l/activation	quad_fem_l/activation	gem_l/activation	peri_l/activation	rect_fem_l/activation	vas_med_l/activation	vas_int_l/activation	vas_lat_l/activation	med_gas_l/activation	lat_gas_l/activation	soleus_l/activation	tib_post_l/activation	flex_dig_l/activation	flex_hal_l/activation	tib_ant_l/activation	per_brev_l/activation	per_long_l/activation	per_tert_l/activation	ext_dig_l/activation	ext_hal_l/activation	ercspn_l/activation	intobl_l/activation	extobl_l/activation	glut_med1_r/activation	glut_med2_r/activation	glut_med3_r/activation	glut_min1_r/activation	glut_min2_r/activation	glut_min3_r/activation	semimem_r/activation	semiten_r/activation	bifemlh_r/activation	bifemsh_r/activation	sar_r/activation	add_long_r/activation	add_brev_r/activation	add_mag1_r/activation	add_mag2_r/activation	add_mag3_r/activation	tfl_r/activation	pect_r/activation	grac_r/activation	glut_max1_r/activation	glut_max2_r/activation	glut_max3_r/activation	iliacus_r/activation	psoas_r/activation	quad_fem_r/activation	gem_r/activation	peri_r/activation	rect_fem_r/activation	vas_med_r/activation	vas_int_r/activation	vas_lat_r/activation	med_gas_r/activation	lat_gas_r/activation	soleus_r/activation	tib_post_r/activation	flex_dig_r/activation	flex_hal_r/activation	tib_ant_r/activation	per_brev_r/activation	per_long_r/activation	per_tert_r/activation	ext_dig_r/activation	ext_hal_r/activation	ercspn_r/activation	intobl_r/activation	extobl_r/activation	
          1.07450592	         -2.92926914	         -2.09493045	          5.33907818	          1.34313239	          0.85857647	         -0.00214257	        -17.95688863	         -1.64066477	          7.15519154	         31.72908430	          2.97968008	         -2.25573913	         -7.28579841	        -15.77197332	          0.48800009	          6.35480183	         11.47920690	         -1.36785400	          1.26775733	          0.04578046	         21.29355980	         -0.11487343	         -2.06007929	          0.58662222	         -1.83434057	          7.13907763	        -13.45819974	         16.95486939	         -8.18840847	        -13.54068516	          7.10948325	         35.45194826	         14.78092027	         86.51662706	         86.51662706	          0.30573708	          0.10485423	          0.07777198	          0.34117210	          0.22553212	          0.10973831	          0.05000129	          0.05000013	          0.05000008	          0.07906938	          0.11298533	          0.05667303	          0.05000029	          0.05000025	          0.05000057	          0.05000043	          0.31656730	          0.05000193	          0.05000025	          0.05000131	          0.05000100	          0.05000073	          0.34821957	          0.58347449	          0.05000005	          0.05000021	          0.05000014	          0.18677946	          0.06675166	          0.05001295	          0.05020904	          0.31257698	          0.42142894	          0.29691486	          0.26521110	          0.28238381	          0.35763776	          0.05000001	          0.06841629	          0.17449007	          0.05000012	          0.05000002	          0.05000008	          0.05000000	          0.05000001	          0.05000002	          0.05000047	          0.05000023	          0.05003247	          0.05000020	          0.05000023	          0.05000060	          0.05895420	          0.05895418	          0.16155783	          0.05000033	          0.05000041	          0.10884857	          0.17022763	          0.18140896	          0.16523598	          0.10035195	          0.05895378	          0.05009544	          0.05895488	          0.05002606	          0.06951187	          0.10592230	          0.05000022	          0.05000024	          0.22938005	          0.05251188	          0.05000093	          0.05000016	          0.11764269	          0.12377015	          0.10179065	          0.05895415	          0.05250423	          0.05895420	          0.05000004	          0.05000060	          0.05000082	          0.50088011	          0.34851146	          0.20171050	          0.26462684	          0.55450091	          0.21803947	          0.06560150	          0.10365621	          0.10592063	
          1.08525097	         -2.92348467	         -2.19850612	          5.60901282	          1.35924834	          0.85752291	         -0.00193957	        -17.73660082	         -1.94093185	          6.93220561	         31.10916819	          3.37792174	         -2.05492751	         -9.36142600	        -15.64130383	         -0.34391601	          5.77890185	         12.44947002	         -1.84900971	          1.20687001	          0.05134463	         22.35643880	         -0.10009871	         -1.87027626	          0.82651888	         -1.90977282	          6.95461023	        -13.47335616	         17.18808209	         -9.18735869	        -13.53862382	          6.92281260	         36.54318744	         14.63586264	         86.51662706	         86.51662706	          0.25930048	          0.08892854	          0.06595980	          0.28935350	          0.19127738	          0.09307082	          0.05000418	          0.05000037	          0.05000082	          0.06706000	          0.09582478	          0.15067678	          0.10318930	          0.06951220	          0.05002612	          0.06123806	          0.26848581	          0.09251112	          0.06158627	          0.05000135	          0.05000088	          0.05000098	          0.29533055	          0.51772559	          0.05026297	          0.06950492	          0.05895435	          0.15841065	          0.13696015	          0.15840768	          0.13571264	          0.26510147	          0.35742054	          0.25181818	          0.22492983	          0.23949443	          0.30331840	          0.05000001	          0.05802497	          0.14798802	          0.05000005	          0.05000001	          0.05000008	          0.05000004	          0.06951199	          0.05000003	          0.05000006	          0.05000018	          0.05000012	          0.05000020	          0.05000022	          0.05000016	          0.05000002	          0.05000005	          0.13701979	          0.05000007	          0.05001431	          0.09231653	          0.14437289	          0.30473654	          0.19948963	          0.08511040	          0.05000010	          0.05000162	          0.05000072	          0.05895369	          0.05895428	          0.11050983	          0.05000032	          0.05168731	          0.55100884	          0.13436291	          0.09451204	          0.06951213	          0.22287132	          0.22585215	          0.19227083	          0.05000000	          0.05000001	          0.05000000	          0.05254513	          0.06951176	          0.05617083	          0.57271515	          0.33868197	          0.21305860	          0.43312779	          0.58791737	          0.21449290	          0.05563767	          0.08791247	          0.08983296	
          1.09599603	         -2.91358856	         -2.30248755	          5.85472086	          1.37565344	          0.85643694	         -0.00175475	        -17.44461656	         -2.23247622	          6.69612959	         30.33072241	          3.71119328	         -1.77938822	        -11.56138170	        -15.96630608	         -1.33237773	          5.22189883	         13.35760442	         -2.35839659	          1.12456417	         -0.04268333	         23.26023802	         -0.15197164	         -1.65881914	          1.07313985	         -1.97476162	          6.68483097	        -13.48890057	         17.34986344	        -10.20179299	        -13.54141249	          6.77942653	         37.61325977	         14.52604838	         86.51662706	         86.51662706	          0.36966868	          0.07542171	          0.05594161	          0.24540541	          0.16222541	          0.07893485	          0.05000115	          0.05000026	          0.05000022	          0.05687467	          0.08127066	          0.15797913	          0.17857495	          0.05895480	          0.05895402	          0.05194054	          0.22770768	          0.08419768	          0.05576815	          0.05007962	          0.05690346	          0.05895364	          0.25047456	          0.48966011	          0.05895415	          0.05894842	          0.05000015	          0.13435058	          0.11615865	          0.13434826	          0.11510023	          0.22483674	          0.30313400	          0.21357097	          0.19076656	          0.20311908	          0.25724917	          0.05000001	          0.05000027	          0.19733840	          0.05000004	          0.05000003	          0.05000007	          0.06083395	          0.05895422	          0.05000042	          0.29839348	          0.05000008	          0.31504626	          0.05000037	          0.05000023	          0.28794232	          0.08829352	          0.08730439	          0.13657636	          0.05000011	          0.05000031	          0.08196087	          0.21042073	          0.25845198	          0.16919070	          0.11957857	          0.05000049	          0.06949952	          0.13613967	          0.05000006	          0.05000010	          0.09372519	          0.05895423	          0.05202668	          0.46731931	          0.11395535	          0.17291738	          0.05895434	          0.18902071	          0.19154880	          0.16306795	          0.05895419	          0.05895418	          0.05895420	          0.05895413	          0.05895415	          0.05895419	          0.48572880	          0.33999377	          0.18069842	          0.36734299	          0.62017443	          0.18191484	          0.05000003	          0.09663865	          0.07618875	
          1.10674109	         -2.90126787	         -2.40474312	          6.06871315	          1.39217229	          0.85532884	         -0.00155829	        -17.05180242	         -2.51055600	          6.45692819	         29.41444313	          4.00412048	         -1.49663355	        -13.91815466	        -16.28493078	         -2.43811789	          4.83033267	         14.19583732	         -2.88203397	          1.01354534	         -0.02312131	         23.91299646	         -0.15703495	         -1.44338254	          1.32160875	         -2.03039599	          6.35628920	        -13.51002244	         17.45359110	        -11.18581419	        -13.54715713	          6.69724937	         38.64844088	         14.42103313	         86.51662706	         86.51662706	          0.31352199	          0.06396635	          0.05000002	          0.31796921	          0.13758597	          0.06694592	          0.06748475	          0.05000007	          0.05000006	          0.05000010	          0.06892745	          0.15719639	          0.15145236	          0.05000060	          0.05000049	          0.05000022	          0.20166484	          0.07141028	          0.05000021	          0.05000045	          0.05000027	          0.05000020	          0.21243146	          0.43857664	          0.05000003	          0.05000016	          0.05000009	          0.11394487	          0.10212681	          0.11394417	          0.11394443	          0.19068758	          0.25709273	          0.18113291	          0.16179214	          0.17226856	          0.21817713	          0.10018243	          0.14622214	          0.16736660	          0.05000078	          0.16493937	          0.05000057	          0.09127434	          0.05000001	          0.05000001	          0.34981097	          0.30242527	          0.37741147	          0.18157038	          0.18176703	          0.24420862	          0.07488324	          0.11350079	          0.11583260	          0.08195885	          0.05000127	          0.06951233	          0.17846116	          0.21919739	          0.14351392	          0.15449725	          0.05000014	          0.05894385	          0.11546265	          0.22888236	          0.17090228	          0.13826660	          0.05000008	          0.05000006	          0.39634091	          0.09664744	          0.14665411	          0.05000012	          0.16031204	          0.22907762	          0.16493149	          0.05000002	          0.05000003	          0.05000000	          0.05000000	          0.05000018	          0.05000010	          0.61366431	          0.36662548	          0.18389927	          0.63139115	          0.66490805	          0.33911326	          0.07502883	          0.08196078	          0.06461689	
